<svg width="429" height="77.89364741790338" viewBox="0 -2.29 374.66666666666663 68.02832921346028" class="looka-1j8o68f">
    <defs id="SvgjsDefs1011"></defs>
    <g id="SvgjsG1012" featurekey="nYIUkx-0" transform="matrix(0.8333333333333333,0,0,0.8333333333333333,10,-2.291666666666668)" fill="#38c6bd">
        <path xmlns="http://www.w3.org/2000/svg" fill="#38c6bd" d="M87.499,53.748l6.302,6.301L100,53.851L69.706,23.558l-7.86,7.86l-12.299-12.3v-8.994h12.871V0H47.517  v10.125h0.006v8.994L0,66.641l9.432,9.432l8.519-8.52l7.239,7.238l11.562-11.562l15.656,15.655l13.438-13.437l5.92,5.921  l5.814-5.815l10.287,10.29l9.201-9.202L85.837,55.409L87.499,53.748z M69.706,26.435l0.002,0.002v12.843l-6.424-6.423L69.706,26.435  z M49.552,2.034h10.835V8.09H49.552V2.034z M25.19,71.928l-7.239-7.237l-8.519,8.52l-6.571-6.57l45.674-45.673V72.15L36.753,60.367  L25.19,71.928z"></path>
    </g>
    <g id="SvgjsG1013" featurekey="PXhRQw-0" transform="matrix(3.058103814997458,0,0,3.058103814997458,106.16513727353626,-0.8195651496158867)" fill="#111111">
        <path d="M2.86 20 c-0.84 0 -1.4267 -0.17334 -1.76 -0.52 s-0.5 -0.92 -0.5 -1.72 l0 -10.48 c0 -0.57334 0.16334 -1.0133 0.49 -1.32 s0.73 -0.46 1.21 -0.46 l3.82 0 l0.5 2.7 l-2.78 0 c-0.17334 0 -0.26 0.09334 -0.26 0.28 l0 8.54 c0 0.18666 0.08666 0.28 0.26 0.28 l2.78 0 l-0.52 2.7 l-3.24 0 z M7.62 5.5 l2.98 0 l0 11.8 l2.92 0 l-0.5 2.7 l-5.4 0 l0 -14.5 z M14.42 5.5 l2.9 0 l0 14.5 l-2.9 0 l0 -14.5 z M21.340000000000003 13.16 l0 6.84 l-2.82 0 l0 -14.5 l3.06 0 l1.58 6.12 l1.58 -6.12 l3.08 0 l0 14.5 l-2.82 0 l0 -6.84 l-1.84 5.8 z M31.900000000000002 8.04 l0.000019531 3.8 l1.36 0 c0.10666 0 0.19332 -0.03 0.25998 -0.09 s0.1 -0.15666 0.1 -0.29 l0 -3.14 c0 -0.18666 -0.08666 -0.28 -0.26 -0.28 l-1.46 0 z M33.660000000000004 14.46 c0 -0.16 -0.04 -0.27002 -0.12 -0.33002 s-0.18666 -0.09 -0.32 -0.09 l-1.32 0 l0 3.42 l1.46 0 c0.12 0 0.2 -0.02334 0.24 -0.07 s0.06 -0.12332 0.06 -0.22998 l0 -2.7 z M36.400000000000006 11.24 c0 0.36 -0.07 0.67 -0.21 0.93 s-0.40334 0.44334 -0.79 0.55 c0.4 0.02666 0.69 0.16666 0.87 0.42 s0.27 0.54 0.27 0.86 l0 3.76 c0 0.8 -0.16666 1.3733 -0.5 1.72 s-0.92 0.52 -1.76 0.52 l-5.26 0 l0 -14.5 l5.66 0 c0.57334 0 1.0033 0.16 1.29 0.48 s0.43 0.74666 0.43 1.28 l0 3.98 z M40.62 8.04 l0 5.7 l1.44 0 c0.12 0 0.19666 -0.02334 0.23 -0.07 s0.05 -0.12332 0.05 -0.22998 l0 -5.12 c0 -0.18666 -0.08666 -0.28 -0.26 -0.28 l-1.46 0 z M43.44 5.5 c0.57334 0 1.0033 0.15998 1.29 0.47998 s0.43 0.74666 0.43 1.28 l0 6.94 c0 0.28 -0.03 0.53666 -0.09 0.77 s-0.17 0.43668 -0.33 0.61002 s-0.37334 0.31 -0.64 0.41 s-0.6 0.15 -1 0.15 l-2.48 0 l0 3.86 l-2.88 0 l0 -14.5 l5.7 0 z M49.2 8.04 l0 5 l1.42 0 c0.18666 0 0.28 -0.1 0.28 -0.3 l0 -4.4 c0 -0.2 -0.09334 -0.3 -0.28 -0.3 l-1.42 0 z M53.760000000000005 14.1 c0 0.32 -0.11 0.61334 -0.33 0.88 s-0.54334 0.4 -0.97 0.4 l1.52 4.62 l-3 0 l-1.4 -4.62 l-0.38 0 l0 4.62 l-2.9 0 l0 -14.5 l5.5 0 c0.68 0 1.1767 0.17 1.49 0.51 s0.47 0.79666 0.47 1.37 l0 6.72 z M58.18000000000001 8.04 c-0.17334 0 -0.26 0.09334 -0.26 0.28 l0 8.84 c0 0.10666 0.01666 0.18332 0.05 0.22998 s0.11 0.07 0.23 0.07 l1.1 0 c0.12 0 0.19666 -0.02334 0.23 -0.07 s0.05 -0.12332 0.05 -0.22998 l0 -8.84 c0 -0.18666 -0.08666 -0.28 -0.26 -0.28 l-1.14 0 z M62.52 17.94 c0 0.28 -0.03334 0.54334 -0.1 0.79 s-0.18 0.46332 -0.34 0.64998 s-0.37334 0.33666 -0.64 0.45 s-0.6 0.17 -1 0.17 l-3.36 0 c-0.4 0 -0.73334 -0.05666 -1 -0.17 s-0.48 -0.26334 -0.64 -0.45 s-0.27334 -0.40332 -0.34 -0.64998 s-0.1 -0.51 -0.1 -0.79 l0 -10.56 c0 -0.57334 0.15666 -1.03 0.47 -1.37 s0.81 -0.51 1.49 -0.51 l3.6 0 c0.68 0 1.1767 0.17 1.49 0.51 s0.47 0.79666 0.47 1.37 l0 10.56 z M63.720000000000006 5.5 l5.64 0 l0.5 2.7 l-3.16 0 l0 3.44 l2.4 0 l0 2.5 l-2.4 0 l0 5.86 l-2.98 0 l0 -14.5 z M70.76 5.5 l2.9 0 l0 14.5 l-2.9 0 l0 -14.5 z M74.86 5.5 l2.98 0 l0 11.8 l2.92 0 l-0.5 2.7 l-5.4 0 l0 -14.5 z M81.66 5.5 l5.64 0 l0.5 2.7 l-3.16 0 l0 3.44 l2.4 0 l0 2.5 l-2.4 0 l0 3.16 l3.04 0 l-0.5 2.7 l-5.52 0 l0 -14.5 z"></path>
    </g>
</svg>